<?xml version="1.0" encoding="utf-8"?>
<!-- Generator: Adobe Illustrator 16.0.0, SVG Export Plug-In . SVG Version: 6.00 Build 0)  -->
<!DOCTYPE svg PUBLIC "-//W3C//DTD SVG 1.1//EN" "http://www.w3.org/Graphics/SVG/1.1/DTD/svg11.dtd">
<svg version="1.1" id="Layer_1" xmlns="http://www.w3.org/2000/svg" xmlns:xlink="http://www.w3.org/1999/xlink" x="0px" y="0px"
	 width="125px" height="65.973px" viewBox="0 0 125 65.973" enable-background="new 0 0 125 65.973" xml:space="preserve">
<g>
	<path fill="#00A551" d="M58.18,14.517c-8.354,1.035-13.154,7.426-13.903,12.944c0.82,5.834,5.938,12.819,15.419,14.432
		l-0.047,3.796c-2.134-0.264-7.682-1.803-11.847-6.688c-0.763-0.939-3.839-4.581-3.746-11.417c0-0.488-0.211-3.725,1.077-7.046
		c0.174-0.425,3.236-8.679,13.01-9.744C58.142,11.153,58.18,14.517,58.18,14.517z"/>
	<path fill="#00A551" d="M78.701,14.667c-1.374-0.302-9.29-0.84-12.415,5.107c-0.049,0.188-0.252,0.451-0.072,0.593
		c0.146,0.31,0.705,2.137,3.908,4.335c2.063,1.692,9.063,3.493,9.561,8.844c0.07,0.314,0.711,5.238-1.099,7.634
		c-4.943,6.169-12.265,4.361-12.265,4.361c-0.033-0.672,0.039-3.742,0.039-3.742c5.494,0.977,11.276-1.656,12.932-5.728
		c0.051-0.097,0.166-0.249-0.071-0.587c-0.186-0.561-1.416-2.931-5.12-4.765c-0.918-0.693-4.078-1.616-6.724-4.678
		c0,0-1.64-1.824-1.664-4.64c-0.023-0.504-0.29-3.436,0.573-5.427c0.115-0.169,3.125-6.378,12.461-5.067
		C78.748,11.346,78.701,14.667,78.701,14.667z"/>
	<path fill="#00A551" d="M97.948,14.667c-1.377-0.302-9.292-0.84-12.419,5.107c-0.054,0.188-0.252,0.451-0.075,0.593
		c0.142,0.31,0.711,2.137,3.918,4.335c2.058,1.692,9.06,3.493,9.561,8.844c0.067,0.314,0.711,5.238-1.105,7.634
		c-4.941,6.169-12.267,4.361-12.267,4.361c-0.03-0.672,0.033-3.742,0.033-3.742c5.501,0.977,11.29-1.656,12.946-5.728
		c0.051-0.097,0.165-0.249-0.074-0.587c-0.192-0.561-1.418-2.931-5.118-4.765c-0.918-0.693-4.076-1.616-6.731-4.678
		c0,0-1.634-1.824-1.66-4.64c-0.021-0.504-0.282-3.436,0.577-5.427c0.111-0.169,3.128-6.378,12.462-5.067
		C97.991,11.346,97.948,14.667,97.948,14.667z"/>
	<path fill="#782B8F" d="M62.366,50.134c0,0.473-0.142,0.855-0.427,1.145c-0.283,0.288-0.641,0.432-1.063,0.432
		c-0.193,0-0.362-0.024-0.502-0.056c-0.131-0.036-0.278-0.098-0.407-0.162l-0.042,0.137h-0.553v-4.032h0.595v1.443
		c0.155-0.111,0.322-0.202,0.492-0.273c0.177-0.072,0.378-0.11,0.602-0.11c0.407,0,0.725,0.133,0.957,0.396
		C62.252,49.312,62.366,49.677,62.366,50.134z M61.746,50.173c0-0.343-0.069-0.6-0.203-0.78c-0.127-0.178-0.333-0.271-0.624-0.271
		c-0.164,0-0.328,0.035-0.5,0.094c-0.163,0.064-0.322,0.139-0.453,0.24v1.649c0.155,0.065,0.288,0.102,0.407,0.123
		c0.115,0.025,0.24,0.044,0.389,0.044c0.304,0,0.544-0.086,0.718-0.267C61.658,50.83,61.746,50.554,61.746,50.173z"/>
	<path fill="#782B8F" d="M64.874,49.266H64.84c-0.051-0.01-0.096-0.02-0.151-0.02c-0.047,0-0.106-0.004-0.171-0.004
		c-0.168,0-0.322,0.028-0.489,0.081c-0.157,0.063-0.311,0.146-0.448,0.257v2.047h-0.597v-2.895h0.597v0.427
		c0.221-0.159,0.402-0.266,0.572-0.331c0.164-0.066,0.327-0.096,0.477-0.096c0.062,0,0.11,0.006,0.137,0.006
		c0.023,0,0.063,0.009,0.108,0.012V49.266L64.874,49.266z"/>
	<path fill="#782B8F" d="M65.998,48.246h-0.694v-0.501h0.694V48.246z M65.943,51.628h-0.596v-2.894h0.596V51.628z"/>
	<path fill="#782B8F" d="M69.631,51.628h-0.596v-1.646c0-0.128-0.004-0.25-0.023-0.368c-0.018-0.116-0.041-0.206-0.087-0.276
		c-0.055-0.071-0.117-0.12-0.213-0.16c-0.083-0.034-0.203-0.053-0.358-0.053c-0.145,0-0.306,0.03-0.456,0.097
		c-0.162,0.065-0.317,0.151-0.469,0.251v2.156h-0.598v-2.894h0.598v0.325c0.177-0.133,0.354-0.23,0.527-0.298
		c0.176-0.073,0.36-0.105,0.555-0.105c0.349,0,0.622,0.092,0.824,0.279c0.196,0.186,0.296,0.458,0.296,0.814V51.628L69.631,51.628z"
		/>
	<path fill="#782B8F" d="M70.587,52.092c0.042,0.021,0.1,0.041,0.182,0.057c0.076,0.026,0.162,0.048,0.265,0.07
		c0.113,0.024,0.222,0.04,0.311,0.061c0.093,0.013,0.199,0.022,0.308,0.022c0.188,0,0.348-0.022,0.476-0.062
		c0.13-0.038,0.229-0.096,0.302-0.169c0.071-0.072,0.117-0.153,0.144-0.248c0.031-0.092,0.042-0.198,0.042-0.312v-0.261
		c-0.16,0.12-0.317,0.206-0.478,0.26c-0.163,0.05-0.352,0.075-0.586,0.075c-0.406,0-0.731-0.117-0.975-0.361
		c-0.237-0.247-0.359-0.602-0.359-1.063c0-0.24,0.038-0.454,0.129-0.643c0.082-0.183,0.192-0.343,0.339-0.477
		c0.13-0.117,0.29-0.214,0.474-0.278c0.177-0.072,0.371-0.103,0.564-0.103c0.188,0,0.35,0.024,0.485,0.054
		c0.135,0.035,0.271,0.08,0.408,0.151l0.031-0.125h0.569v2.571c0,0.486-0.138,0.845-0.396,1.077
		c-0.273,0.23-0.673,0.348-1.223,0.348c-0.17,0-0.349-0.012-0.53-0.032c-0.181-0.025-0.355-0.052-0.521-0.09v-0.511h0.038v-0.013
		H70.587z M72.614,50.854V49.26c-0.146-0.059-0.285-0.101-0.414-0.124c-0.119-0.023-0.252-0.042-0.374-0.042
		c-0.306,0-0.549,0.096-0.722,0.278c-0.177,0.177-0.262,0.438-0.262,0.776c0,0.323,0.063,0.571,0.191,0.746
		c0.138,0.167,0.354,0.245,0.656,0.245c0.153,0,0.315-0.021,0.48-0.071C72.333,51.006,72.486,50.939,72.614,50.854z"/>
	<path fill="#782B8F" d="M74.746,48.246h-0.686v-0.501h0.686V48.246z M74.688,51.628h-0.59v-2.894h0.59V51.628L74.688,51.628z"/>
	<path fill="#782B8F" d="M78.378,51.628h-0.592v-1.646c0-0.128-0.01-0.25-0.023-0.368c-0.018-0.116-0.049-0.206-0.098-0.276
		c-0.044-0.071-0.115-0.12-0.196-0.16c-0.091-0.034-0.21-0.053-0.37-0.053c-0.144,0-0.301,0.03-0.455,0.097
		c-0.165,0.065-0.315,0.151-0.467,0.251v2.156h-0.6v-2.894h0.6v0.325c0.176-0.133,0.351-0.23,0.532-0.298
		c0.171-0.073,0.356-0.105,0.552-0.105c0.35,0,0.625,0.092,0.823,0.279c0.192,0.186,0.296,0.458,0.296,0.814v1.878H78.378z"/>
	<path fill="#782B8F" d="M79.341,52.092c0.041,0.021,0.102,0.041,0.173,0.057c0.082,0.026,0.175,0.048,0.272,0.07
		c0.113,0.024,0.216,0.04,0.307,0.061c0.093,0.013,0.2,0.022,0.311,0.022c0.18,0,0.341-0.022,0.476-0.062
		c0.125-0.038,0.23-0.096,0.303-0.169c0.069-0.072,0.113-0.153,0.142-0.248c0.036-0.092,0.041-0.198,0.041-0.312v-0.261
		c-0.16,0.12-0.322,0.206-0.477,0.26c-0.157,0.05-0.35,0.075-0.586,0.075c-0.41,0-0.731-0.117-0.979-0.361
		c-0.237-0.247-0.354-0.602-0.354-1.063c0-0.24,0.036-0.454,0.12-0.643c0.084-0.183,0.2-0.343,0.34-0.477
		c0.134-0.117,0.295-0.214,0.479-0.278c0.186-0.072,0.375-0.103,0.573-0.103c0.181,0,0.348,0.024,0.479,0.054
		c0.133,0.035,0.273,0.08,0.405,0.151l0.042-0.125h0.558v2.571c0,0.486-0.126,0.845-0.4,1.077c-0.26,0.23-0.671,0.348-1.213,0.348
		c-0.173,0-0.352-0.012-0.537-0.032c-0.184-0.025-0.349-0.052-0.51-0.09v-0.511h0.036L79.341,52.092L79.341,52.092z M81.364,50.854
		V49.26c-0.15-0.059-0.286-0.101-0.414-0.124c-0.12-0.023-0.255-0.042-0.376-0.042c-0.309,0-0.547,0.096-0.721,0.278
		c-0.174,0.177-0.261,0.438-0.261,0.776c0,0.323,0.061,0.571,0.197,0.746c0.132,0.167,0.353,0.245,0.646,0.245
		c0.159,0,0.322-0.021,0.489-0.071C81.086,51.006,81.234,50.939,81.364,50.854z"/>
	<path fill="#782B8F" d="M87.677,51.628h-0.594v-1.646c0-0.128-0.003-0.25-0.021-0.368c-0.021-0.116-0.054-0.206-0.091-0.276
		c-0.058-0.071-0.122-0.12-0.214-0.16c-0.087-0.034-0.205-0.053-0.355-0.053s-0.303,0.03-0.456,0.097
		c-0.161,0.065-0.319,0.151-0.469,0.251v2.156h-0.599v-4.032h0.598v1.466c0.178-0.133,0.353-0.229,0.532-0.298
		c0.173-0.071,0.354-0.107,0.551-0.107c0.35,0,0.625,0.092,0.821,0.279c0.201,0.186,0.301,0.458,0.301,0.814L87.677,51.628
		L87.677,51.628z"/>
	<path fill="#782B8F" d="M91.457,50.183c0,0.491-0.148,0.863-0.438,1.13c-0.289,0.265-0.674,0.402-1.153,0.402
		c-0.495,0-0.889-0.139-1.179-0.411c-0.277-0.267-0.42-0.646-0.42-1.109c0-0.484,0.145-0.857,0.437-1.127
		c0.297-0.266,0.678-0.406,1.162-0.406c0.479,0,0.867,0.133,1.153,0.406C91.311,49.324,91.457,49.701,91.457,50.183z M90.835,50.183
		c0-0.372-0.08-0.646-0.256-0.832c-0.165-0.18-0.401-0.268-0.713-0.268c-0.313,0-0.553,0.091-0.729,0.268
		c-0.163,0.186-0.253,0.459-0.253,0.832c0,0.365,0.086,0.633,0.253,0.822c0.171,0.189,0.413,0.279,0.729,0.279
		c0.31,0,0.546-0.092,0.713-0.279C90.746,50.827,90.835,50.548,90.835,50.183z"/>
	<path fill="#782B8F" d="M95.063,50.11c0,0.485-0.14,0.867-0.421,1.156c-0.289,0.283-0.646,0.428-1.083,0.428
		c-0.172,0-0.334-0.018-0.472-0.048c-0.136-0.027-0.271-0.089-0.417-0.151V52.7h-0.598v-3.967h0.596v0.31
		c0.148-0.113,0.312-0.198,0.5-0.271c0.177-0.076,0.383-0.11,0.602-0.11c0.405,0,0.727,0.132,0.954,0.392
		C94.95,49.315,95.063,49.673,95.063,50.11z M94.446,50.164c0-0.329-0.067-0.589-0.2-0.77c-0.118-0.179-0.344-0.271-0.629-0.271
		c-0.168,0-0.339,0.03-0.498,0.092c-0.159,0.063-0.307,0.14-0.452,0.237v1.641c0.16,0.067,0.295,0.108,0.407,0.128
		c0.107,0.024,0.238,0.034,0.383,0.034c0.313,0,0.557-0.093,0.729-0.28C94.361,50.796,94.446,50.521,94.446,50.164z"/>
	<path fill="#782B8F" d="M97.221,51.694c-0.564,0-1.015-0.127-1.321-0.388c-0.314-0.263-0.47-0.629-0.47-1.108
		c0-0.465,0.16-0.844,0.459-1.122c0.304-0.279,0.695-0.416,1.194-0.416c0.218,0,0.412,0.024,0.589,0.08
		c0.169,0.053,0.316,0.122,0.447,0.243c0.131,0.108,0.226,0.244,0.296,0.404c0.071,0.163,0.104,0.354,0.104,0.59v0.261h-2.487
		c0,0.333,0.102,0.593,0.313,0.768c0.209,0.181,0.501,0.267,0.873,0.267c0.13,0,0.263-0.014,0.387-0.038
		c0.127-0.025,0.246-0.053,0.354-0.096c0.109-0.04,0.2-0.073,0.269-0.11c0.075-0.038,0.14-0.075,0.188-0.107h0.028v0.53
		c-0.068,0.021-0.159,0.05-0.257,0.079c-0.106,0.029-0.202,0.068-0.283,0.081c-0.115,0.023-0.219,0.043-0.314,0.06
		C97.481,51.686,97.362,51.694,97.221,51.694z M97.922,49.861c-0.004-0.129-0.022-0.25-0.06-0.343
		c-0.026-0.099-0.079-0.175-0.149-0.243c-0.071-0.072-0.165-0.131-0.267-0.167c-0.116-0.036-0.248-0.057-0.414-0.057
		c-0.163,0-0.299,0.021-0.404,0.061c-0.118,0.037-0.218,0.096-0.311,0.166c-0.086,0.076-0.162,0.166-0.212,0.261
		c-0.039,0.092-0.073,0.2-0.08,0.325h1.896V49.861L97.922,49.861z"/>
	<path fill="#782B8F" d="M22.56,4.936c0,0,14.289,6.896,18.771,20.753l-4.948-3.043C35.431,18.365,32.156,12.115,22.56,4.936z"/>
	<path fill="#782B8F" d="M41.352,3.74c-0.716,0.694-2.914,4.694-1.848,9.199c0.756,2.818,2.747,2.708,4.563,1.627
		c1.39-0.873,3.687-4.518,2.452-9.042C46.333,4.866,44.335,0.751,41.352,3.74z"/>
	<path fill="#782B8F" d="M30.98,59.964c-2.236-8.43-0.96-23.704,7.999-33.315c0.236,0.746,1.28,4.349,1.28,4.349
		C38.345,33.796,30.594,41.908,30.98,59.964z"/>
	<path fill="#00A551" d="M58.746,51.651c-4.266,0.865-14.785,3.343-27.37,11.043c-1.208,0.218-6.901,1.238-6.901,1.238
		C40.976,54.584,52.637,52.402,58.746,51.651z"/>
</g>
</svg>
